<svg width="20" height="20" viewBox="0 0 20 20" fill="none" xmlns="http://www.w3.org/2000/svg">
<path d="M17.6433 20L11.4875 13.8442C10.3308 14.5725 8.9675 15 7.5 15C3.3575 15 0 11.6425 0 7.5C0 3.3575 3.3575 0 7.5 0C11.6425 0 15 3.3575 15 7.5C15 8.9675 14.5717 10.3317 13.8442 11.4875L20 17.6433L17.6433 20ZM7.5 13.3333C10.7158 13.3333 13.3333 10.7167 13.3333 7.5C13.3333 4.28333 10.7158 1.66667 7.5 1.66667C4.28417 1.66667 1.66667 4.28333 1.66667 7.5C1.66667 10.7167 4.28417 13.3333 7.5 13.3333Z" fill="#84709C"/>
</svg>
