<svg width="29" height="29" viewBox="0 0 29 29" fill="none" xmlns="http://www.w3.org/2000/svg">
<g clip-path="url(#clip0)">
<path fill-rule="evenodd" clip-rule="evenodd" d="M1.20837 24.1667V20.6069C3.61658 19.8143 4.31983 17.9993 5.64054 13.2639C6.72442 9.37546 7.9255 5.06654 11.5287 3.56942C11.4961 3.39179 11.4792 3.20813 11.4792 3.02083C11.4792 1.35333 12.8325 0 14.5 0C16.1675 0 17.5209 1.35333 17.5209 3.02083C17.5209 3.20933 17.504 3.39421 17.4701 3.57425C21.0794 5.07742 22.2841 9.38996 23.3716 13.2808C24.7044 18.0537 25.4222 19.8336 27.7917 20.6057V24.1667H19.3334C19.3334 26.8347 17.168 29 14.5 29C11.832 29 9.66671 26.8347 9.66671 24.1667H1.20837V24.1667ZM18.125 24.1667H10.875C10.875 26.1677 12.499 27.7917 14.5 27.7917C16.501 27.7917 18.125 26.1677 18.125 24.1667ZM2.41671 22.9583H26.5834V21.4588C24.0918 20.3495 23.1759 17.0689 22.208 13.607C20.9199 8.99846 19.5895 4.23279 14.5 4.22917C9.41296 4.22917 8.08621 8.98638 6.80417 13.5877C5.8375 17.058 4.92037 20.3459 2.41671 21.4588V22.9583V22.9583ZM16.3029 3.20813L16.3125 3.02083C16.3125 2.02033 15.5005 1.20833 14.5 1.20833C13.4995 1.20833 12.6875 2.02033 12.6875 3.02083L12.6972 3.2045C13.247 3.08488 13.8439 3.02083 14.494 3.02083C15.1489 3.02083 15.7495 3.08608 16.3029 3.20813V3.20813Z" fill="white" fill-opacity="0.85"/>
</g>
<defs>
<clipPath id="clip0">
<rect width="29" height="29" fill="white"/>
</clipPath>
</defs>
</svg>
