<svg width="57" height="57" viewBox="0 0 57 57" fill="none" xmlns="http://www.w3.org/2000/svg">
<path d="M24.0156 26.4162L26.0703 28.4595L24.0156 30.5023H9.55199V37.3092L0.731445 28.4595L9.55199 19.7582V26.4162H24.0156ZM30.3733 9.03387H47.9472V26.6082H30.3733V9.03387Z" fill="#932279"/>
<path d="M30.5649 24.0158L28.522 26.0705L26.4792 24.0158V9.5522H19.6719L28.522 0.731659L37.2229 9.5522H30.5649V24.0158ZM30.3733 30.3735H47.9472V47.9479H30.3733V30.3735Z" fill="#EFA724"/>
<path d="M32.9657 30.5651L30.9106 28.5223L32.9657 26.4794H47.429V19.6721L56.2499 28.5223L47.429 37.2231V30.5651H32.9657ZM9.03369 30.3735H26.6076V47.9479H9.03369V30.3735Z" fill="#262577"/>
<path d="M26.416 32.9659L28.4589 30.9108L30.5021 32.9659V47.4295H37.3091L28.4589 56.2501L19.7584 47.4295H26.416V32.9659ZM9.03369 9.03387H26.6076V26.6082H9.03369V9.03387Z" fill="#9CCD2A"/>
<path d="M8.40625 8.40613H27.2357V27.2356H8.40625V8.40613ZM9.66136 25.9804H25.9802V9.66163H9.66136V25.9804ZM29.7463 8.40613H48.5757V27.2356H29.7463V8.40613ZM31.0014 25.9804H47.3202V9.66163H31.0014V25.9804ZM29.7463 29.7462H48.5757V48.576H29.7463V29.7462ZM31.0014 47.3201H47.3202V31.0013H31.0014V47.3201ZM8.40625 29.7462H27.2357V48.576H8.40625V29.7462ZM9.66136 47.3201H25.9802V31.0013H9.66136V47.3201Z" fill="white"/>
<path d="M13.4012 41.8054L0.0864258 28.4907L13.4008 15.1763L26.7156 28.4907L13.4012 41.8054ZM1.86183 28.4907L13.4012 40.03L24.9402 28.4907L13.4008 16.9517L1.86183 28.4907ZM28.4906 26.7157L15.1762 13.4013L28.4906 0.0865173L41.8049 13.4013L28.4906 26.7157ZM16.9516 13.4013L28.4906 24.9402L40.0299 13.4013L28.4906 1.86192L16.9516 13.4013ZM43.5803 41.8054L30.266 28.4907L43.5803 15.1763L56.8947 28.4907L43.5803 41.8054ZM32.041 28.4907L43.5803 40.03L55.1193 28.4907L43.5803 16.9517L32.041 28.4907ZM28.4906 56.8948L15.1762 43.5804L28.4906 30.2661L41.8049 43.5804L28.4906 56.8948ZM16.9516 43.5804L28.4906 55.1194L40.0299 43.5804L28.4906 32.0415L16.9516 43.5804Z" fill="white"/>
</svg>
