<svg width="50" height="50" viewBox="0 0 50 50" fill="none" xmlns="http://www.w3.org/2000/svg">
<g clip-path="url(#clip0_1259_149)">
<path d="M0 0V50H50V0H0Z" fill="#99A1AD"/>
<path d="M35.2273 5.47973C35.1181 5.54285 35.1006 5.57563 35.1297 5.52846C34.0687 7.31549 34.0414 9.67278 33.5675 11.7772C33.568 11.7935 33.568 11.8098 33.5675 11.826C33.5597 11.8568 33.5753 11.893 33.5675 11.9236C33.3374 14.1829 32.5927 16.4869 33.1281 18.6606C33.1492 18.7076 33.1655 18.7567 33.1768 18.8069C33.1815 18.8227 33.1721 18.84 33.1768 18.8557C33.1846 18.8682 33.169 18.8927 33.1768 18.9044C33.1862 18.9185 33.2164 18.8919 33.2256 18.9044C33.3398 19.0616 33.4793 19.1792 33.5673 19.1974C33.6303 19.2099 33.7395 19.2036 33.9579 19.0509C34.1942 18.8864 34.3279 18.5569 34.3972 18.1234C34.4242 18.0711 34.4569 18.022 34.4949 17.977C34.4944 17.9608 34.4944 17.9446 34.4949 17.9283C34.5062 17.878 34.5225 17.829 34.5436 17.7819C34.5591 17.7649 34.5754 17.7487 34.5923 17.7332C35.527 14.0044 36.1596 10.0912 35.9104 6.26083C35.8786 6.07041 35.8436 5.93777 35.6663 5.72383C35.5487 5.58213 35.4522 5.50076 35.4222 5.47973C35.3922 5.45864 35.4332 5.47348 35.3246 5.47973C35.3084 5.48024 35.2921 5.48024 35.2759 5.47973C35.2357 5.48442 35.2512 5.47878 35.2272 5.47973H35.2273Z" fill="#99A1AD"/>
<path d="M43.8338 7.30698C42.2148 8.09378 41.386 9.9711 40.27 11.5054C40.259 11.5558 40.2427 11.6048 40.2213 11.6517C40.2075 11.6855 40.1912 11.7181 40.1725 11.7494C38.7576 14.2569 36.9525 16.7599 36.7552 19.658C36.7541 19.6744 36.7562 19.6905 36.7552 19.7067C36.7768 20.1441 37.0272 20.3816 37.2922 20.439C37.5524 20.4953 38.0334 20.3462 38.2198 20.0485C38.2352 20.0315 38.2515 20.0152 38.2685 19.9997C38.268 19.9835 38.268 19.9672 38.2685 19.951C38.268 19.9347 38.268 19.9185 38.2685 19.9023C40.8399 16.369 42.7742 12.2086 44.3709 8.13699C44.3703 8.12075 44.3703 8.10446 44.3709 8.08822C44.4813 7.82088 44.5178 7.75246 44.4196 7.55122C44.3907 7.4917 44.0878 7.28766 43.9314 7.30712C43.9059 7.31806 43.8587 7.29463 43.8338 7.30712V7.30698Z" fill="#99A1AD"/>
<path d="M18.6362 8.47254C18.3749 8.52113 17.9862 8.75514 17.7086 8.86309C16.7271 9.23547 16.1855 10.0769 15.9512 11.0599C15.7126 12.0657 15.7921 13.1858 15.9512 14.3308C16.1102 15.4734 16.3378 16.6529 16.5858 17.5528C16.799 18.3313 16.9516 18.7101 17.0252 18.9685V19.1638C17.0252 19.2489 16.9844 19.2419 16.9275 19.3102C16.8963 19.3272 16.9588 19.4078 16.9275 19.4078C16.8568 19.4618 16.7715 19.5054 16.6834 19.5054C16.51 19.5164 16.3745 19.4533 16.1953 19.4078C16.0731 19.3795 15.9141 19.2817 15.9512 19.3102C15.8945 19.2761 15.7929 19.2722 15.7559 19.2125C15.7559 19.2353 15.7901 19.2349 15.7559 19.1638C15.7162 19.0899 15.672 18.9038 15.6095 18.7732C15.4703 18.4773 15.361 18.1344 15.1701 17.6992C14.7892 16.8327 14.2991 15.7682 13.7544 14.7701C13.2076 13.7681 12.5636 12.8587 11.8505 12.2316C11.494 11.9183 11.054 11.6043 10.63 11.4993C10.2207 11.397 9.73506 11.4837 9.3119 11.6946C8.21841 12.3013 7.59944 13.2946 7.35915 14.3308C7.1177 15.3828 7.23187 16.5944 7.40793 17.6504C7.58686 18.7042 7.86391 19.5731 8.04257 20.2866C8.11911 20.5874 8.21238 20.8683 8.23784 21.0189C8.23784 21.1681 8.17707 21.5575 8.1402 21.7024C7.95558 22.3417 7.50659 23.411 7.50556 23.411C7.50556 23.411 -1.01298 46.0361 17.2693 44.4518C17.4199 44.4409 17.7619 44.3542 17.9039 44.3542C21.4942 43.6313 24.8917 42.5456 27.9117 41.3274C28.505 41.0431 29.2834 40.7606 30.1574 40.351C31.9052 39.5322 34.1011 38.4829 36.2109 37.3243C38.3214 36.1648 40.2796 34.9294 41.7762 33.6141C43.2752 32.2967 44.3694 30.8532 44.1683 29.4157C43.8501 27.0983 42.3112 25.3761 40.2628 24.0456C38.2067 22.7104 35.6429 21.7888 33.0865 21.1165C30.5311 20.4445 28.0498 19.898 26.1542 19.6032C25.2067 19.4555 24.3188 19.4126 23.7621 19.3103C23.5974 19.282 23.5094 19.241 23.4204 19.2126C23.3724 19.2064 23.3682 19.1921 23.3228 19.1638C23.2661 19.1298 23.1617 19.1259 23.1275 19.0662C23.0962 19.0095 23.1275 18.9362 23.1275 18.8709C23.1275 18.8455 23.1272 18.8074 23.1275 18.7733V17.3576C23.0962 16.189 23.0275 14.6463 22.7858 13.208C22.5415 11.7637 22.1647 10.3823 21.37 9.44896C20.8977 8.89368 20.229 8.5293 19.4173 8.47259C19.173 8.44416 18.9 8.42432 18.6362 8.47259V8.47254Z" fill="#99A1AD"/>
<path d="M25 5.47144L20.4305 10.041H23.3131H23.6519V10.3798V21.4299L25 22.778L26.3929 21.3851V10.3386V9.99795H26.7335H29.5265L25 5.47144ZM27.0723 10.6774V20.7056L33.6533 14.1247L30.2059 10.6774H27.0723V10.6774ZM31.1686 10.6774L34.3757 13.8845L34.6159 14.1247L34.3757 14.3649L27.0723 21.6683V22.916H28.3469L35.6378 15.627L35.878 15.3867L36.1182 15.627L39.311 18.8197V10.6774H31.1686V10.6774ZM10.7554 10.7204V18.7534L13.8675 15.6413L14.1077 15.4011L14.3479 15.6413L21.6244 22.916H22.9725V21.7131L15.6243 14.3649L15.3841 14.1247L15.6243 13.8845L18.7884 10.7204H10.7554V10.7204ZM19.751 10.7204L16.3467 14.1247L22.9725 20.7504V10.7204H19.751V10.7204ZM35.878 16.3476L29.3096 22.916H39.311V19.7806L35.878 16.3476V16.3476ZM14.1077 16.362L10.7554 19.7143V22.916H20.6599L14.1077 16.362ZM10.0759 20.3937L5.46875 25.0009L10.0759 29.6081V26.6555V26.3149H10.4165H21.463L22.7609 25.017L21.3394 23.5954H10.4165H10.0759V23.2548V20.3937V20.3937ZM39.9904 20.46V23.2548V23.5954H39.6516H28.6302L27.2247 25.0009L28.5388 26.3149H39.6516H39.9904V26.6555V29.5417L44.5313 25.0009L39.9904 20.46V20.46ZM10.7554 26.9944V30.2875L14.122 33.6542L20.7836 26.9944H10.7554V26.9944ZM21.7463 26.9944L14.364 34.3748L14.122 34.615L13.8818 34.3748L10.7554 31.2484V39.233H18.7131L15.6261 36.146L15.3859 35.9058L15.6261 35.6655L22.994 28.2976V26.9944H21.7463V26.9944ZM27.0723 26.9944V28.4213L34.3166 35.6655L34.5568 35.9058L34.3166 36.146L31.2296 39.233H39.311V31.1821L36.1182 34.3748L35.878 34.615L35.6378 34.3748L28.2555 26.9944H27.0723V26.9944ZM29.2182 26.9944L35.878 33.6542L39.311 30.2212V26.9944H29.2182ZM24.9713 27.2812L23.6734 28.5791V39.5736V39.9124H23.3328H20.3534L24.9713 44.5286L29.5875 39.9124H26.7335H26.3929V39.5736V28.7028L24.9713 27.2812V27.2812ZM22.994 29.2585L16.3467 35.9058L19.674 39.233H22.994V29.2585V29.2585ZM27.0723 29.3822V39.233H30.2669L33.5941 35.9058L27.0723 29.3822Z" fill="#0D1117"/>
</g>
<defs>
<clipPath id="clip0_1259_149">
<rect width="50" height="50" fill="white"/>
</clipPath>
</defs>
</svg>
