<svg width="44" height="44" viewBox="0 0 44 44" fill="none" xmlns="http://www.w3.org/2000/svg">
<path d="M5.49984 11V44H38.4998V11H5.49984ZM14.6665 36.6667C14.6665 37.6787 13.8452 38.5 12.8332 38.5C11.8212 38.5 10.9998 37.6787 10.9998 36.6667V18.3333C10.9998 17.3213 11.8212 16.5 12.8332 16.5C13.8452 16.5 14.6665 17.3213 14.6665 18.3333V36.6667ZM23.8332 36.6667C23.8332 37.6787 23.0118 38.5 21.9998 38.5C20.9878 38.5 20.1665 37.6787 20.1665 36.6667V18.3333C20.1665 17.3213 20.9878 16.5 21.9998 16.5C23.0118 16.5 23.8332 17.3213 23.8332 18.3333V36.6667ZM32.9998 36.6667C32.9998 37.6787 32.1785 38.5 31.1665 38.5C30.1545 38.5 29.3332 37.6787 29.3332 36.6667V18.3333C29.3332 17.3213 30.1545 16.5 31.1665 16.5C32.1785 16.5 32.9998 17.3213 32.9998 18.3333V36.6667ZM40.3332 3.66667V7.33333H3.6665V3.66667H14.1367C15.7867 3.66667 17.1268 1.65183 17.1268 0H26.871C26.871 1.65183 28.2093 3.66667 29.8612 3.66667H40.3332Z" fill="#4F5865"/>
</svg>
