<svg width="18" height="17" viewBox="0 0 18 17" fill="none" xmlns="http://www.w3.org/2000/svg">
<path d="M15.8561 14.5783C15.8561 15.3721 15.2108 16.0416 14.4168 16.0416H2.8992C2.10508 16.0416 1.4599 15.3721 1.4599 14.5783L1.45975 3.06413C1.45975 2.27025 2.10509 1.64867 2.89905 1.64867H9.61734L9.61749 0.689941H2.8992C1.57609 0.689941 0.5 1.74235 0.5 3.06505V14.578C0.5 15.9007 1.57609 16.9999 2.8992 16.9999H14.4157C15.7388 16.9999 16.8149 15.8998 16.8149 14.578V7.88533H15.8549V14.578L15.8561 14.5783Z" fill="#3A383E"/>
<path d="M16.9376 0.544034C16.2129 -0.181345 14.9485 -0.181345 14.2229 0.544034L7.78499 6.97996C7.72374 7.0412 7.67952 7.11873 7.65886 7.20245L6.98123 9.91544C6.94064 10.0785 6.98848 10.2515 7.10737 10.3714C7.19836 10.4624 7.32102 10.512 7.44626 10.512C7.48503 10.512 7.52381 10.5075 7.56259 10.4975L10.2773 9.81908C10.3619 9.79842 10.4386 9.75422 10.4998 9.69298L16.9377 3.25706C17.3 2.89489 17.5001 2.41282 17.5001 1.9001C17.5001 1.38756 17.3008 0.906384 16.9376 0.544061L16.9376 0.544034ZM9.91567 8.92074L8.10594 9.37311L8.55845 7.56393L13.8843 2.23973L15.2416 3.59669L9.91567 8.92074ZM16.2589 2.57826L15.92 2.91704L14.5626 1.56008L14.9015 1.2213C15.2638 0.859135 15.8966 0.859135 16.2589 1.2213C16.4401 1.40246 16.5401 1.64305 16.5401 1.89976C16.5401 2.15664 16.4401 2.39723 16.2589 2.57822V2.57826Z" fill="#7F719C"/>
</svg>
