<svg width="30" height="29" viewBox="0 0 30 29" fill="none" xmlns="http://www.w3.org/2000/svg">
<g clip-path="url(#clip0)">
<path fill-rule="evenodd" clip-rule="evenodd" d="M3.33333 6.44444C4.21739 6.44444 5.06523 6.10496 5.69036 5.50068C6.31548 4.89639 6.66667 4.07681 6.66667 3.22222C6.66667 2.36764 6.31548 1.54805 5.69036 0.943767C5.06523 0.339483 4.21739 0 3.33333 0C2.44928 0 1.60143 0.339483 0.976311 0.943767C0.35119 1.54805 0 2.36764 0 3.22222C0 4.07681 0.35119 4.89639 0.976311 5.50068C1.60143 6.10496 2.44928 6.44444 3.33333 6.44444V6.44444ZM3.33333 17.7222C4.21739 17.7222 5.06523 17.3827 5.69036 16.7785C6.31548 16.1742 6.66667 15.3546 6.66667 14.5C6.66667 13.6454 6.31548 12.8258 5.69036 12.2215C5.06523 11.6173 4.21739 11.2778 3.33333 11.2778C2.44928 11.2778 1.60143 11.6173 0.976311 12.2215C0.35119 12.8258 0 13.6454 0 14.5C0 15.3546 0.35119 16.1742 0.976311 16.7785C1.60143 17.3827 2.44928 17.7222 3.33333 17.7222V17.7222ZM3.33333 29C4.21739 29 5.06523 28.6605 5.69036 28.0562C6.31548 27.4519 6.66667 26.6324 6.66667 25.7778C6.66667 24.9232 6.31548 24.1036 5.69036 23.4993C5.06523 22.895 4.21739 22.5556 3.33333 22.5556C2.44928 22.5556 1.60143 22.895 0.976311 23.4993C0.35119 24.1036 0 24.9232 0 25.7778C0 26.6324 0.35119 27.4519 0.976311 28.0562C1.60143 28.6605 2.44928 29 3.33333 29V29ZM15 6.44444C15.8841 6.44444 16.7319 6.10496 17.357 5.50068C17.9821 4.89639 18.3333 4.07681 18.3333 3.22222C18.3333 2.36764 17.9821 1.54805 17.357 0.943767C16.7319 0.339483 15.8841 0 15 0C14.1159 0 13.2681 0.339483 12.643 0.943767C12.0179 1.54805 11.6667 2.36764 11.6667 3.22222C11.6667 4.07681 12.0179 4.89639 12.643 5.50068C13.2681 6.10496 14.1159 6.44444 15 6.44444ZM15 17.7222C15.8841 17.7222 16.7319 17.3827 17.357 16.7785C17.9821 16.1742 18.3333 15.3546 18.3333 14.5C18.3333 13.6454 17.9821 12.8258 17.357 12.2215C16.7319 11.6173 15.8841 11.2778 15 11.2778C14.1159 11.2778 13.2681 11.6173 12.643 12.2215C12.0179 12.8258 11.6667 13.6454 11.6667 14.5C11.6667 15.3546 12.0179 16.1742 12.643 16.7785C13.2681 17.3827 14.1159 17.7222 15 17.7222ZM15 29C15.8841 29 16.7319 28.6605 17.357 28.0562C17.9821 27.4519 18.3333 26.6324 18.3333 25.7778C18.3333 24.9232 17.9821 24.1036 17.357 23.4993C16.7319 22.895 15.8841 22.5556 15 22.5556C14.1159 22.5556 13.2681 22.895 12.643 23.4993C12.0179 24.1036 11.6667 24.9232 11.6667 25.7778C11.6667 26.6324 12.0179 27.4519 12.643 28.0562C13.2681 28.6605 14.1159 29 15 29ZM26.6667 6.44444C27.5507 6.44444 28.3986 6.10496 29.0237 5.50068C29.6488 4.89639 30 4.07681 30 3.22222C30 2.36764 29.6488 1.54805 29.0237 0.943767C28.3986 0.339483 27.5507 0 26.6667 0C25.7826 0 24.9348 0.339483 24.3096 0.943767C23.6845 1.54805 23.3333 2.36764 23.3333 3.22222C23.3333 4.07681 23.6845 4.89639 24.3096 5.50068C24.9348 6.10496 25.7826 6.44444 26.6667 6.44444ZM26.6667 17.7222C27.5507 17.7222 28.3986 17.3827 29.0237 16.7785C29.6488 16.1742 30 15.3546 30 14.5C30 13.6454 29.6488 12.8258 29.0237 12.2215C28.3986 11.6173 27.5507 11.2778 26.6667 11.2778C25.7826 11.2778 24.9348 11.6173 24.3096 12.2215C23.6845 12.8258 23.3333 13.6454 23.3333 14.5C23.3333 15.3546 23.6845 16.1742 24.3096 16.7785C24.9348 17.3827 25.7826 17.7222 26.6667 17.7222ZM26.6667 29C27.5507 29 28.3986 28.6605 29.0237 28.0562C29.6488 27.4519 30 26.6324 30 25.7778C30 24.9232 29.6488 24.1036 29.0237 23.4993C28.3986 22.895 27.5507 22.5556 26.6667 22.5556C25.7826 22.5556 24.9348 22.895 24.3096 23.4993C23.6845 24.1036 23.3333 24.9232 23.3333 25.7778C23.3333 26.6324 23.6845 27.4519 24.3096 28.0562C24.9348 28.6605 25.7826 29 26.6667 29Z" fill="#DBDCDC"/>
</g>
<defs>
<clipPath id="clip0">
<rect width="30" height="29" fill="white"/>
</clipPath>
</defs>
</svg>
