<svg width="22" height="22" viewBox="0 0 22 22" fill="none" xmlns="http://www.w3.org/2000/svg">
<path d="M9.16667 14.6667C9.16667 13.6547 9.988 12.8333 11 12.8333C12.012 12.8333 12.8333 13.6547 12.8333 14.6667C12.8333 15.3432 12.463 15.928 11.9167 16.2461V18.3333H10.0833V16.2461C9.537 15.928 9.16667 15.3432 9.16667 14.6667ZM19.25 9.16667V22H2.75V9.16667H5.5V5.5C5.5 2.46308 7.96308 0 11 0C14.0369 0 16.5 2.46308 16.5 5.5V9.16667H19.25ZM7.33333 9.16667H14.6667V5.5C14.6667 3.47783 13.0212 1.83333 11 1.83333C8.97875 1.83333 7.33333 3.47783 7.33333 5.5V9.16667ZM17.4167 11H4.58333V20.1667H17.4167V11Z" fill="#929FB2"/>
</svg>
