<svg width="22" height="22" viewBox="0 0 22 22" fill="none" xmlns="http://www.w3.org/2000/svg">
<path d="M11 1.83333C13.7793 1.83333 16.0417 4.09475 16.0417 6.875C16.0417 8.2115 15.5989 9.80467 13.0643 11.9992C16.8328 13.7968 19.1162 16.8144 19.9228 20.1658H2.06067C2.93608 16.3267 5.73192 13.3833 8.95308 12.0175C7.4855 10.8378 5.95833 8.97142 5.95833 6.875C5.95833 4.09475 8.22067 1.83333 11 1.83333ZM11 0C7.20317 0 4.125 3.07725 4.125 6.875C4.125 8.71933 4.85558 10.3895 6.03717 11.6252C1.42633 14.3834 0 19.4178 0 22H22C22 19.4416 20.4811 14.41 15.9592 11.6288C17.1435 10.3932 17.875 8.72117 17.875 6.875C17.875 3.07725 14.7968 0 11 0Z" fill="#939FB2"/>
</svg>
