<svg width="44" height="44" viewBox="0 0 44 44" fill="none" xmlns="http://www.w3.org/2000/svg">
<path d="M25.6667 22H18.3333V0H25.6667V22ZM33.3905 3.21567L31.1667 6.14717C36.6373 9.3225 40.3333 15.2313 40.3333 22C40.3333 32.109 32.109 40.3333 22 40.3333C11.891 40.3333 3.66667 32.109 3.66667 22C3.66667 15.2313 7.36267 9.3225 12.8333 6.14717L10.6095 3.21567C4.257 7.07117 0 14.0268 0 22C0 34.1495 9.8505 44 22 44C34.1495 44 44 34.1495 44 22C44 14.0268 39.743 7.07117 33.3905 3.21567Z" fill="#733131"/>
</svg>
