<svg width="22" height="27" viewBox="0 0 22 27" fill="none" xmlns="http://www.w3.org/2000/svg">
<path d="M21 20.3397C21 21.6941 20.0887 23.0867 18.2602 24.1938C16.4503 25.2896 13.8859 25.9999 11 25.9999C8.11412 25.9999 5.54968 25.2896 3.73976 24.1938C1.91133 23.0867 1 21.6941 1 20.3397C1 19.021 1.86826 17.7998 3.6837 16.8544C5.49218 15.9126 8.07186 15.354 11 15.354C13.9281 15.354 16.5078 15.9126 18.3163 16.8544C20.1317 17.7998 21 19.021 21 20.3397Z" fill="#0D1016" stroke="#6E687B" stroke-width="2"/>
<path d="M16.8095 6.44224C16.8095 9.39639 14.2614 11.8845 11 11.8845C7.73848 11.8845 5.19043 9.39639 5.19043 6.44224C5.19043 3.48809 7.73848 1 11 1C14.2614 1 16.8095 3.48809 16.8095 6.44224Z" fill="#0D1016" stroke="#3A383E" stroke-width="2"/>
</svg>
