<svg width="44" height="44" viewBox="0 0 44 44" fill="none" xmlns="http://www.w3.org/2000/svg">
<g clip-path="url(#clip0_1432_222)">
<path d="M38.3973 23.7948C37.5008 32.0613 30.503 38.5 22 38.5C17.0537 38.5 12.628 36.311 9.60117 32.8625L11.8837 29.8687C14.2358 32.8845 17.8897 34.8333 22 34.8333C28.4643 34.8333 33.814 30.0227 34.6922 23.7948H29.3333L36.6667 14.1698L44 23.7948H38.3973ZM9.31333 20.1667C10.2062 13.9572 15.5467 9.16667 22 9.16667C26.1012 9.16667 29.7513 11.1082 32.1017 14.113L34.3823 11.121C31.3573 7.68167 26.9372 5.5 22 5.5C13.508 5.5 6.52117 11.9185 5.60817 20.1667H0L7.33333 29.7917L14.6667 20.1667H9.31333Z" fill="#74A6E9"/>
</g>
<defs>
<clipPath id="clip0_1432_222">
<rect width="44" height="44" fill="white"/>
</clipPath>
</defs>
</svg>
