<svg width="16" height="16" viewBox="0 0 16 16" fill="none" xmlns="http://www.w3.org/2000/svg">
<path d="M9.33333 8H6.66667V0H9.33333V8ZM12.142 1.16933L11.3333 2.23533C13.3227 3.39 14.6667 5.53867 14.6667 8C14.6667 11.676 11.676 14.6667 8 14.6667C4.324 14.6667 1.33333 11.676 1.33333 8C1.33333 6.72333 1.702 5.53733 2.33067 4.526L3.77467 5.97067L4.67667 1.29467L0 2.19467L1.36133 3.556C0.503333 4.82533 0 6.35133 0 8C0 12.418 3.582 16 8 16C12.418 16 16 12.418 16 8C16 5.10067 14.452 2.57133 12.142 1.16933Z" fill="#778497"/>
</svg>
