<svg width="16" height="16" viewBox="0 0 16 16" fill="none" xmlns="http://www.w3.org/2000/svg">
<path fill-rule="evenodd" clip-rule="evenodd" d="M1.63867 6.008C1.44067 6.63933 1.33333 7.31133 1.33333 8.008C1.33333 11.688 4.32067 14.6747 8 14.6747C11.68 14.6747 14.6667 11.688 14.6667 8.008C14.6667 4.32867 11.68 1.34133 8 1.34133C6.586 1.34133 5.278 1.78667 4.198 2.53867L5.33333 4.008H0.946667L2.23667 0L3.382 1.482C4.68733 0.556 6.27933 0.008 8 0.008C12.4153 0.008 16 3.59267 16 8.008C16 12.4233 12.4153 16 8 16C3.58467 16 0 12.4233 0 8.008C0 7.31733 0.088 6.64733 0.252667 6.008H1.63867ZM8.53867 4C8.73333 4.54733 8.78867 4.89733 9.212 5.07267C9.63667 5.24867 9.92733 5.038 10.448 4.79067L11.2093 5.552C10.9607 6.07667 10.7513 6.364 10.9273 6.788C11.102 7.21067 11.45 7.26533 12 7.46067V8.53867C11.456 8.732 11.102 8.78867 10.9267 9.212C10.7507 9.636 10.9613 9.926 11.2093 10.4473L10.448 11.2087C9.92133 10.9587 9.63533 10.7507 9.21467 10.926C8.78867 11.1027 8.73267 11.4547 8.53867 12H7.46133C7.26667 11.4527 7.21133 11.102 6.788 10.9267C6.36333 10.7507 6.07333 10.9613 5.552 11.2087L4.79067 10.4473C5.03467 9.93333 5.25 9.63933 5.07267 9.21133C4.89733 8.788 4.544 8.732 4 8.53867V7.46067C4.54467 7.26733 4.89733 7.212 5.07267 6.788C5.24867 6.36333 5.03867 6.07467 4.79067 5.552L5.552 4.79067C6.07733 5.04 6.364 5.24867 6.788 5.07267C7.21133 4.89733 7.26733 4.54467 7.46133 4H8.53867V4ZM8 9.33333C7.26333 9.33333 6.66667 8.736 6.66667 8C6.66667 7.26333 7.26333 6.666 8 6.666C8.736 6.666 9.33333 7.26333 9.33333 8C9.33333 8.736 8.736 9.33333 8 9.33333Z" fill="#778497"/>
</svg>
