<svg width="24" height="24" viewBox="0 0 24 24" fill="none" xmlns="http://www.w3.org/2000/svg">
<g clip-path="url(#clip0_5_23)">
<path d="M24 21V15H6V21H24ZM21 17C21.553 17 22 17.448 22 18C22 18.552 21.553 19 21 19C20.448 19 20 18.552 20 18C20 17.448 20.448 17 21 17ZM13.194 17H14.469L13.605 19H12.331L13.194 17ZM11.053 17H12.328L11.465 19H10.19L11.053 17ZM8.863 17H10.138L9.275 19H8L8.863 17ZM4 17.941C1.747 17.651 0 15.747 0 13.417C0 11.165 1.626 9.296 3.767 8.911C3.944 5.617 6.662 3 10 3C13.338 3 16.056 5.617 16.233 8.911C18.238 9.272 19.774 10.94 19.962 13H17.971C17.692 10.895 15.297 10.667 14.321 10.599C14.438 8.641 13.766 5 10 5C5.562 5 5.641 9.75 5.679 10.599C4.734 10.562 2 10.94 2 13.417C2 14.64 2.856 15.662 4 15.928V17.941V17.941Z" fill="#B7C1CB"/>
</g>
<defs>
<clipPath id="clip0_5_23">
<rect width="24" height="24" fill="white"/>
</clipPath>
</defs>
</svg>
