<svg width="29" height="29" viewBox="0 0 29 29" fill="none" xmlns="http://www.w3.org/2000/svg">
<path d="M11.1511 1H2.86706C1.83591 1 1 1.85955 1 2.91985V7.67384C1 8.73414 1.83591 9.59369 2.86706 9.59369H11.1511C12.1822 9.59369 13.0181 8.73414 13.0181 7.67384V2.91985C13.0181 1.85955 12.1822 1 11.1511 1Z" stroke="#3A383E"/>
<path d="M26.133 19.4062H17.849C16.8178 19.4062 15.9819 20.2658 15.9819 21.3261V26.0801C15.9819 27.1404 16.8178 27.9999 17.849 27.9999H26.133C27.1642 27.9999 28.0001 27.1404 28.0001 26.0801V21.3261C28.0001 20.2658 27.1642 19.4062 26.133 19.4062Z" stroke="#3A383E"/>
<path d="M11.1508 12.6411H2.86682C2.13029 12.6411 1.5332 13.2551 1.5332 14.0124V26.0802C1.5332 26.8375 2.13029 27.4515 2.86682 27.4515H11.1508C11.8874 27.4515 12.4845 26.8375 12.4845 26.0802V14.0124C12.4845 13.2551 11.8874 12.6411 11.1508 12.6411Z" stroke="#575065" stroke-width="1.5"/>
<path d="M26.1323 1.54858H17.8483C17.1117 1.54858 16.5146 2.16255 16.5146 2.91991V14.9877C16.5146 15.745 17.1117 16.359 17.8483 16.359H26.1323C26.8688 16.359 27.4659 15.745 27.4659 14.9877V2.91991C27.4659 2.16255 26.8688 1.54858 26.1323 1.54858Z" stroke="#575065" stroke-width="1.5"/>
</svg>
