<svg width="51" height="50" viewBox="0 0 51 50" fill="none" xmlns="http://www.w3.org/2000/svg">
<g clip-path="url(#clip0_1252_110)">
<path d="M50.501 0V50H0.500975V0H50.501V0Z" fill="#99A1AD"/>
<path d="M17.2047 12.2032C15.4784 13.2001 13.2714 12.6089 12.2752 10.8829C11.2783 9.1564 11.8692 6.94961 13.5957 5.95285C15.322 4.95633 17.5287 5.54755 18.5255 7.27414C19.522 9 18.9308 11.2067 17.2047 12.2032ZM24.5924 35.5443C26.1797 35.5443 27.6839 35.1914 29.0341 34.5633L31.5423 39.0579C29.4472 40.0953 27.0886 40.6815 24.5924 40.6815C23.1407 40.6815 21.737 40.4803 20.4031 40.1109C20.1671 38.6612 19.3062 37.325 17.9338 36.5325C16.5638 35.7415 14.9782 35.6631 13.6058 36.1818C10.9367 33.5573 9.1999 29.9866 8.94707 26.0101L14.0915 25.9355C14.5649 31.3219 19.0837 35.5446 24.5924 35.5446V35.5443ZM24.5924 14.4556C19.0837 14.4556 14.5649 18.6791 14.0915 24.0649L8.94707 23.9895C9.20023 20.0134 10.9371 16.4427 13.6065 13.8183C14.9788 14.3367 16.5641 14.2581 17.9343 13.467C19.3066 12.6748 20.1672 11.3388 20.4033 9.88885C21.737 9.51984 23.1407 9.31845 24.5924 9.31845C27.0886 9.31845 29.4471 9.90442 31.542 10.9422L29.034 15.4363C27.6839 14.8082 26.1797 14.4553 24.5924 14.4553V14.4556ZM35.1366 25C35.1366 21.4326 33.3637 18.2817 30.6531 16.3737L33.292 11.9529C36.4508 14.0636 38.8008 17.2899 39.7768 21.069C38.6365 21.9984 37.908 23.4136 37.908 25.0003C37.908 26.5867 38.6367 28.002 39.777 28.9311C38.8011 32.7105 36.4511 35.9367 33.2921 38.0474L30.6531 33.6265C33.3637 31.7187 35.1366 28.5679 35.1366 25V25ZM17.2042 37.7965C18.9308 38.7933 19.522 40.9999 18.5254 42.7258C17.5285 44.4523 15.322 45.0438 13.5954 44.047C11.8694 43.0504 11.278 40.8436 12.2748 39.1173C13.2713 37.3916 15.4782 36.8 17.2042 37.7965V37.7965ZM42.9772 21.3908C44.9712 21.3908 46.5869 23.0063 46.5869 25.0003C46.5869 26.9937 44.9712 28.6095 42.9772 28.6095C40.984 28.6095 39.3681 26.9937 39.3681 25.0003C39.3681 23.0063 40.984 21.3908 42.9772 21.3908Z" fill="#0D1117"/>
</g>
<defs>
<clipPath id="clip0_1252_110">
<rect width="50" height="50" fill="white" transform="matrix(-1 0 0 1 50.501 0)"/>
</clipPath>
</defs>
</svg>
