<svg width="50" height="50" viewBox="0 0 50 50" fill="none" xmlns="http://www.w3.org/2000/svg">
<g clip-path="url(#clip0_1273_158)">
<path d="M0 0V50H50V0H0V0Z" fill="#F47421"/>
<path d="M33.2962 12.2032C35.0226 13.2001 37.2295 12.6089 38.2258 10.8829C39.2227 9.1564 38.6318 6.94961 36.9053 5.95285C35.179 4.95633 32.9723 5.54755 31.9755 7.27414C30.979 9 31.5701 11.2067 33.2962 12.2032ZM25.9086 35.5443C24.3213 35.5443 22.8171 35.1914 21.4669 34.5633L18.9586 39.0579C21.0538 40.0953 23.4124 40.6815 25.9086 40.6815C27.3602 40.6815 28.764 40.4803 30.0979 40.1109C30.3339 38.6612 31.1947 37.325 32.5672 36.5325C33.9372 35.7415 35.5228 35.6631 36.8952 36.1818C39.5643 33.5573 41.3011 29.9866 41.5539 26.0101L36.4094 25.9355C35.936 31.3219 31.4173 35.5446 25.9086 35.5446V35.5443ZM25.9086 14.4556C31.4173 14.4556 35.936 18.6791 36.4094 24.0649L41.5539 23.9895C41.3007 20.0134 39.5639 16.4427 36.8945 13.8183C35.5222 14.3367 33.9369 14.2581 32.5667 13.467C31.1944 12.6748 30.3337 11.3388 30.0977 9.88885C28.764 9.51984 27.3602 9.31845 25.9086 9.31845C23.4124 9.31845 21.0539 9.90442 18.959 10.9422L21.467 15.4363C22.8171 14.8082 24.3213 14.4553 25.9086 14.4553V14.4556ZM15.3644 25C15.3644 21.4326 17.1373 18.2817 19.8479 16.3737L17.209 11.9529C14.0502 14.0636 11.7002 17.2899 10.7242 21.069C11.8645 21.9984 12.593 23.4136 12.593 25.0003C12.593 26.5867 11.8642 28.002 10.724 28.9311C11.6999 32.7105 14.0499 35.9367 17.2089 38.0474L19.8479 33.6265C17.1373 31.7187 15.3644 28.5679 15.3644 25V25ZM33.2967 37.7965C31.5701 38.7933 30.979 40.9999 31.9756 42.7258C32.9725 44.4523 35.179 45.0438 36.9056 44.047C38.6316 43.0504 39.223 40.8436 38.2261 39.1173C37.2297 37.3916 35.0228 36.8 33.2967 37.7965V37.7965ZM7.52374 21.3908C5.52981 21.3908 3.91406 23.0063 3.91406 25.0003C3.91406 26.9937 5.52981 28.6095 7.52374 28.6095C9.51702 28.6095 11.1329 26.9937 11.1329 25.0003C11.1329 23.0063 9.51702 21.3908 7.52374 21.3908Z" fill="white"/>
</g>
<defs>
<clipPath id="clip0_1273_158">
<rect width="50" height="50" fill="white"/>
</clipPath>
</defs>
</svg>
