<svg width="29" height="29" viewBox="0 0 29 29" fill="none" xmlns="http://www.w3.org/2000/svg">
<g clip-path="url(#clip0_1572_144)">
<path d="M14.5 25.9792V13.8959" stroke="#6E687B" stroke-width="2" stroke-linecap="round" stroke-linejoin="round"/>
<path d="M14.4999 13.8959L10.2708 18.125" stroke="#6E687B" stroke-width="2" stroke-linecap="round" stroke-linejoin="round"/>
<path d="M14.5 13.8959L18.7292 18.125" stroke="#6E687B" stroke-width="2" stroke-linecap="round" stroke-linejoin="round"/>
<path d="M19.3333 25.9792H20.8437C22.7388 25.9301 24.5508 25.1904 25.9388 23.8991C27.3268 22.6078 28.1952 20.8539 28.3808 18.9672C28.5663 17.0805 28.0562 15.1911 26.9464 13.6541C25.8365 12.1172 24.2034 11.0386 22.3541 10.6213C22.3541 10.5669 22.3541 10.5186 22.3541 10.4642C22.3669 9.49941 22.1895 8.54154 21.832 7.6453C21.4746 6.74907 20.9441 5.93203 20.2709 5.24083C19.5976 4.54964 18.7948 3.99783 17.9083 3.61693C17.0218 3.23603 16.0689 3.03349 15.1041 3.02087C14.1393 3.03349 13.1864 3.23603 12.2999 3.61693C11.4134 3.99783 10.6106 4.54964 9.93736 5.24083C9.26412 5.93203 8.73363 6.74907 8.37618 7.6453C8.01873 8.54154 7.84133 9.49941 7.85411 10.4642C5.87702 10.5687 4.01731 11.4351 2.66547 12.8816C1.31362 14.3281 0.574789 16.2421 0.604112 18.2217C0.578296 20.2515 1.35912 22.2085 2.77511 23.663C4.1911 25.1175 6.12647 25.9506 8.1562 25.9792H9.66661" stroke="#3A383E" stroke-width="2" stroke-linecap="round" stroke-linejoin="round"/>
</g>
<defs>
<clipPath id="clip0_1572_144">
<rect width="29" height="29" fill="white"/>
</clipPath>
</defs>
</svg>
