<svg width="29" height="29" viewBox="0 0 29 29" fill="none" xmlns="http://www.w3.org/2000/svg">
<path d="M21.6364 21H23.6426C24.0026 21 24.3479 20.857 24.6024 20.6024C24.857 20.3478 25 20.0024 25 19.6424V5.35761C25 4.99755 24.857 4.65224 24.6024 4.39763C24.3479 4.14303 24.0026 4 23.6426 4H9.35739C8.99739 4 8.65213 4.14303 8.39757 4.39763C8.14301 4.65224 8 4.99755 8 5.35761V7.36416" stroke="#3A383E" stroke-width="2" stroke-linecap="round" stroke-linejoin="round"/>
<path d="M19.6424 8H5.35761C4.60782 8 4 8.60782 4 9.35761V23.6424C4 24.3922 4.60782 25 5.35761 25H19.6424C20.3922 25 21 24.3922 21 23.6424V9.35761C21 8.60782 20.3922 8 19.6424 8Z" stroke="#6E687B" stroke-width="2" stroke-linecap="round" stroke-linejoin="round"/>
</svg>
