<svg width="30" height="24" viewBox="0 0 30 24" fill="none" xmlns="http://www.w3.org/2000/svg">
<path d="M27.2557 11.4137C27.3805 10.9771 27.4428 10.4782 27.4428 9.97921C27.4428 6.86071 24.948 4.3659 21.8295 4.3659C21.0811 4.3659 20.3326 4.49064 19.6466 4.8025C18.7734 1.99584 16.1538 0 13.0977 0C9.29314 0 6.23701 3.05613 6.23701 6.86071C6.23701 7.11019 6.23701 7.2973 6.29938 7.54678C6.0499 7.48441 5.86279 7.48441 5.61331 7.48441C2.4948 7.48441 0 9.97921 0 13.0977C0 16.2162 2.4948 18.711 5.61331 18.711H8.10811V17.4636H5.61331C3.18087 17.4636 1.2474 15.5301 1.2474 13.0977C1.2474 10.6653 3.18087 8.73181 5.61331 8.73181C6.0499 8.73181 6.42412 8.79418 6.86071 8.91892L7.921 9.23077L7.67152 8.17048C7.54678 7.73389 7.48441 7.2973 7.48441 6.86071C7.48441 3.7422 9.97921 1.2474 13.0977 1.2474C15.7796 1.2474 18.1497 3.18087 18.5863 5.86279L18.7734 6.73597L19.5218 6.23701C20.2079 5.80042 21.0187 5.61331 21.7672 5.61331C24.1996 5.61331 26.1331 7.54678 26.1331 9.97921C26.1331 10.5405 26.0083 11.1019 25.8212 11.6632L25.5717 12.4116L26.4449 12.474C27.7547 12.5988 28.7526 13.659 28.7526 14.9688C28.7526 16.341 27.6299 17.4636 26.2578 17.4636H21.8919V18.711H26.2578C28.316 18.711 30 17.027 30 14.9688C29.9376 13.2848 28.815 11.8503 27.2557 11.4137Z" fill="#6E687B"/>
<path d="M18.711 12.474H11.2266C10.1663 12.474 9.35547 13.2848 9.35547 14.3451V21.8295C9.35547 22.8898 10.1663 23.7006 11.2266 23.7006H18.711C19.7713 23.7006 20.5821 22.8898 20.5821 21.8295V14.3451C20.5821 13.2848 19.7713 12.474 18.711 12.474ZM19.3347 21.8295C19.3347 22.2037 19.0852 22.4532 18.711 22.4532H11.2266C10.8524 22.4532 10.6029 22.2037 10.6029 21.8295V14.3451C10.6029 13.9709 10.8524 13.7214 11.2266 13.7214H18.711C19.0852 13.7214 19.3347 13.9709 19.3347 14.3451V21.8295Z" fill="#6E687B"/>
<path d="M18.0873 14.9689H11.8503V16.2163H18.0873V14.9689Z" fill="#303033"/>
<path d="M18.0873 17.4636H11.8503V18.711H18.0873V17.4636Z" fill="#303033"/>
<path d="M18.0873 19.9584H11.8503V21.2058H18.0873V19.9584Z" fill="#303033"/>
<path d="M8.73169 6.86066C8.73169 4.42822 10.6652 2.49475 13.0976 2.49475V6.86066H8.73169Z" fill="#3A383E"/>
</svg>
