<svg width="29" height="18" viewBox="0 0 29 18" fill="none" xmlns="http://www.w3.org/2000/svg">
<path d="M17.0931 0C21.2312 0 24.232 3.0414 24.4517 6.36774C26.9569 7.13538 28.7668 9.26786 28.7668 11.7907C28.7668 14.9561 25.9216 17.5349 22.4296 17.5349H6.41993C2.73651 17.5349 0.0827637 15.2443 0.0827637 12.3954C0.0827637 10.155 1.69856 7.98497 4.14773 7.37864C4.3071 5.6285 5.2547 4.28051 6.57616 3.56183C7.85134 2.86821 9.4171 2.74782 10.8286 3.20291C12.0303 1.41756 14.2298 0 17.0931 0ZM17.0931 1.2092C14.5025 1.2092 12.5794 2.57069 11.6837 4.19472C11.605 4.33918 11.4664 4.44926 11.2981 4.50072C11.1299 4.55217 10.9461 4.54057 10.7872 4.46866C9.66185 3.95874 8.32062 4.01694 7.26415 4.5914C6.20791 5.16587 5.41916 6.23103 5.41916 7.86035C5.41893 8.1539 5.18604 8.40507 4.86684 8.45566C2.86277 8.76039 1.41677 10.5734 1.41677 12.3955C1.41677 14.5832 3.31989 16.3257 6.4198 16.3257H22.4295C25.2004 16.3257 27.4325 14.3025 27.4325 11.7909C27.4325 9.66556 25.8254 7.89474 23.6593 7.39768C23.3608 7.32787 23.1542 7.08177 23.1591 6.80237C23.1891 3.96472 20.6603 1.2092 17.0931 1.2092Z" fill="#6E687B"/>
</svg>
