<svg width="29" height="29" viewBox="0 0 29 29" fill="none" xmlns="http://www.w3.org/2000/svg">
<path d="M14.5001 6.76667C13.9663 6.76667 13.5334 6.33379 13.5334 5.8V0.966667C13.5334 0.432873 13.9663 0 14.5001 0C15.0339 0 15.4668 0.432873 15.4668 0.966667V5.8C15.4668 6.33379 15.0339 6.76667 14.5001 6.76667Z" fill="#3A383E"/>
<path d="M9.66686 6.76667C9.13307 6.76667 8.7002 6.33379 8.7002 5.8V0.966667C8.7002 0.432873 9.13307 0 9.66686 0C10.2007 0 10.6335 0.432873 10.6335 0.966667V5.8C10.6335 6.33379 10.2007 6.76667 9.66686 6.76667Z" fill="#3A383E"/>
<path d="M19.3334 6.76667C18.7991 6.76667 18.3667 6.33379 18.3667 5.8V0.966667C18.3667 0.432873 18.7991 0 19.3334 0C19.8676 0 20.3 0.432873 20.3 0.966667V5.8C20.3 6.33379 19.8676 6.76667 19.3334 6.76667Z" fill="#3A383E"/>
<path d="M14.5001 28.9999C13.9663 28.9999 13.5334 28.5671 13.5334 28.0333V23.1999C13.5334 22.6661 13.9663 22.2333 14.5001 22.2333C15.0339 22.2333 15.4668 22.6661 15.4668 23.1999V28.0333C15.4668 28.5671 15.0339 28.9999 14.5001 28.9999Z" fill="#3A383E"/>
<path d="M9.66686 28.9999C9.13307 28.9999 8.7002 28.5671 8.7002 28.0333V23.1999C8.7002 22.6661 9.13307 22.2333 9.66686 22.2333C10.2007 22.2333 10.6335 22.6661 10.6335 23.1999V28.0333C10.6335 28.5671 10.2007 28.9999 9.66686 28.9999Z" fill="#3A383E"/>
<path d="M19.3334 28.9999C18.7991 28.9999 18.3667 28.5671 18.3667 28.0333V23.1999C18.3667 22.6661 18.7991 22.2333 19.3334 22.2333C19.8676 22.2333 20.3 22.6661 20.3 23.1999V28.0333C20.3 28.5671 19.8676 28.9999 19.3334 28.9999Z" fill="#3A383E"/>
<path d="M28.0332 15.4667H23.1998C22.6655 15.4667 22.2332 15.0338 22.2332 14.5C22.2332 13.9662 22.6655 13.5333 23.1998 13.5333H28.0332C28.5674 13.5333 28.9998 13.9662 28.9998 14.5C28.9998 15.0338 28.5674 15.4667 28.0332 15.4667Z" fill="#3A383E"/>
<path d="M28.0332 10.6333H23.1998C22.6655 10.6333 22.2332 10.2004 22.2332 9.66662C22.2332 9.13282 22.6655 8.69995 23.1998 8.69995H28.0332C28.5674 8.69995 28.9998 9.13282 28.9998 9.66662C28.9998 10.2004 28.5674 10.6333 28.0332 10.6333Z" fill="#3A383E"/>
<path d="M28.0332 20.2999H23.1998C22.6655 20.2999 22.2332 19.867 22.2332 19.3332C22.2332 18.7995 22.6655 18.3666 23.1998 18.3666H28.0332C28.5674 18.3666 28.9998 18.7995 28.9998 19.3332C28.9998 19.867 28.5674 20.2999 28.0332 20.2999Z" fill="#3A383E"/>
<path d="M5.8 15.4667H0.966667C0.432873 15.4667 0 15.0338 0 14.5C0 13.9662 0.432873 13.5333 0.966667 13.5333H5.8C6.33379 13.5333 6.76667 13.9662 6.76667 14.5C6.76667 15.0338 6.33379 15.4667 5.8 15.4667Z" fill="#3A383E"/>
<path d="M5.8 10.6333H0.966667C0.432873 10.6333 0 10.2004 0 9.66662C0 9.13282 0.432873 8.69995 0.966667 8.69995H5.8C6.33379 8.69995 6.76667 9.13282 6.76667 9.66662C6.76667 10.2004 6.33379 10.6333 5.8 10.6333Z" fill="#3A383E"/>
<path d="M5.8 20.3H0.966667C0.432873 20.3 0 19.8672 0 19.3334C0 18.7996 0.432873 18.3667 0.966667 18.3667H5.8C6.33379 18.3667 6.76667 18.7996 6.76667 19.3334C6.76667 19.8672 6.33379 20.3 5.8 20.3Z" fill="#3A383E"/>
<path d="M21.2666 24.1667H7.73325C6.1341 24.1667 4.83325 22.8659 4.83325 21.2667V7.73337C4.83325 6.13422 6.1341 4.83337 7.73325 4.83337H21.2666C22.8657 4.83337 24.1666 6.13422 24.1666 7.73337V21.2667C24.1666 22.8659 22.8657 24.1667 21.2666 24.1667ZM7.73325 6.76671C7.20033 6.76671 6.76659 7.20045 6.76659 7.73337V21.2667C6.76659 21.7996 7.20033 22.2334 7.73325 22.2334H21.2666C21.8 22.2334 22.2333 21.7996 22.2333 21.2667V7.73337C22.2333 7.20045 21.8 6.76671 21.2666 6.76671H7.73325Z" fill="#6E687B"/>
<path d="M16.4286 19H12.5714C12.2164 19 11.9286 18.7121 11.9286 18.3571V17.7143C11.9286 17.3599 11.6401 17.0714 11.2857 17.0714H10.6429C10.2879 17.0714 10 16.7836 10 16.4286V12.5714C10 12.2164 10.2879 11.9286 10.6429 11.9286H11.2857C11.6401 11.9286 11.9286 11.6401 11.9286 11.2857V10.6429C11.9286 10.2879 12.2164 10 12.5714 10H16.4286C16.7839 10 17.0714 10.2879 17.0714 10.6429V11.2857C17.0714 11.6401 17.3596 11.9286 17.7143 11.9286H18.3571C18.7125 11.9286 19 12.2164 19 12.5714V16.4286C19 16.7836 18.7125 17.0714 18.3571 17.0714H17.7143C17.3596 17.0714 17.0714 17.3599 17.0714 17.7143V18.3571C17.0714 18.7121 16.7839 19 16.4286 19ZM13.2143 17.7143H15.7857C15.7857 16.6508 16.6508 15.7857 17.7143 15.7857V13.2143C16.6508 13.2143 15.7857 12.3492 15.7857 11.2857H13.2143C13.2143 12.3492 12.3492 13.2143 11.2857 13.2143V15.7857C12.3492 15.7857 13.2143 16.6508 13.2143 17.7143Z" fill="#3A383E"/>
</svg>
