<svg width="29" height="29" viewBox="0 0 29 29" fill="none" xmlns="http://www.w3.org/2000/svg">
<g clip-path="url(#clip0_1572_142)">
<path d="M14.5097 0C9.40454 0 2.41675 1.20954 2.41675 5.26954V23.7293C2.41675 27.7917 9.91929 29 14.5097 29C19.0809 29 26.5834 27.7905 26.5834 23.7305V5.26954C26.5834 1.20833 19.3757 0 14.5097 0V0ZM14.5097 2.41667C18.9057 2.41667 24.1667 3.51504 24.1667 5.26954C24.1667 7.17992 17.9994 8.12242 14.5097 8.12242C10.3869 8.12363 4.83341 7.02888 4.83341 5.26954C4.83341 3.35554 10.6479 2.41667 14.5097 2.41667ZM24.1667 23.4248C24.1667 25.5405 17.9994 26.5833 14.5097 26.5833C10.3869 26.5833 4.83341 25.3726 4.83341 23.4248V20.9598C7.39146 22.5813 11.0805 23.1106 14.5097 23.1106C17.9281 23.1106 21.6099 22.5813 24.1667 20.9598V23.4248ZM24.1667 17.5365C24.1667 19.6511 17.9994 20.6951 14.5097 20.6951C10.3869 20.6939 4.83341 19.4844 4.83341 17.5365V14.68C7.39025 16.3004 11.0805 16.8309 14.5097 16.8309C17.9402 16.8309 21.616 16.2968 24.1667 14.68V17.5365ZM14.5097 14.413C10.37 14.413 4.83341 13.1974 4.83341 11.2544V8.38946C7.39146 10.011 11.0805 10.5403 14.5097 10.5403C17.9281 10.5403 21.6099 10.011 24.1667 8.38946V11.2556C24.1667 13.3738 17.9668 14.413 14.5097 14.413Z" fill="#504D56"/>
</g>
<defs>
<clipPath id="clip0_1572_142">
<rect width="29" height="29" fill="white"/>
</clipPath>
</defs>
</svg>
