<svg width="29" height="18" viewBox="0 0 29 18" fill="none" xmlns="http://www.w3.org/2000/svg">
<path d="M17.097 0C21.2284 0 24.2244 3.0414 24.4438 6.36774C26.945 7.13538 28.752 9.26786 28.752 11.7907C28.752 14.9561 25.9114 17.5349 22.4249 17.5349H6.44082C2.76328 17.5349 0.11377 15.2443 0.11377 12.3954C0.11377 10.155 1.72699 7.98497 4.17224 7.37864C4.33135 5.6285 5.27745 4.28051 6.59679 3.56183C7.86993 2.86821 9.4332 2.74782 10.8425 3.20291C12.0422 1.41756 14.2382 0.00019441 17.097 0.00019441V0ZM17.097 1.2092C14.5105 1.2092 12.5904 2.57069 11.6961 4.19472C11.6176 4.33918 11.4792 4.44926 11.3112 4.50072C11.1433 4.55217 10.9598 4.54057 10.8011 4.46866C9.67755 3.95874 8.33847 4.01694 7.28368 4.5914C6.22913 5.16587 5.44164 6.23103 5.44164 7.86035L5.44188 7.86056C5.44164 8.15412 5.20889 8.40507 4.8902 8.45566C2.88933 8.76039 1.44565 10.5734 1.44565 12.3955C1.44565 14.5832 3.34573 16.3257 6.44069 16.3257H22.4248C25.1913 16.3257 27.4198 14.3025 27.4198 11.7909C27.4198 9.66556 25.8152 7.89474 23.6526 7.39768L23.6529 7.39747C23.3548 7.32766 23.1483 7.08177 23.1532 6.80237C23.1832 3.96472 20.6583 1.20934 17.0967 1.20934L17.097 1.2092Z" fill="#6E687B"/>
</svg>
