<svg width="32" height="31" viewBox="0 0 32 31" fill="none" xmlns="http://www.w3.org/2000/svg">
<g clip-path="url(#clip0_1432_73)">
<path d="M14.6648 30.3566C15.445 30.7567 16.3937 30.7567 17.174 30.3566L29.7032 23.9314C30.5232 23.5109 31.0319 22.7128 31.0319 21.8469V9.15309C31.0319 8.28707 30.5232 7.48913 29.7032 7.06856L17.174 0.643348C16.3937 0.243233 15.4451 0.243233 14.6648 0.643348L2.13565 7.06856C1.31552 7.48913 0.806885 8.28707 0.806885 9.15309V21.8469C0.806885 22.7128 1.31552 23.5109 2.13563 23.9314L14.6648 30.3566ZM28.971 20.767C28.971 21.6334 28.4619 22.4318 27.6409 22.8522L17.1726 28.2126C16.3931 28.6118 15.4457 28.6118 14.6662 28.2126L4.19786 22.8522C3.37694 22.4318 2.86769 21.6334 2.86769 20.767V10.2439C2.86769 9.37804 3.37614 8.5802 4.19604 8.15957L14.6656 2.78831C15.4454 2.38825 16.3936 2.38789 17.1737 2.78736L27.6409 8.1472C28.4619 8.56756 28.971 9.36591 28.971 10.2325V20.767Z" fill="#4A4652"/>
<path d="M16.3065 19.6731C18.8033 19.6731 20.8273 17.8047 20.8273 15.5C20.8273 13.1953 18.8033 11.3269 16.3065 11.3269C13.8097 11.3269 11.7856 13.1953 11.7856 15.5C11.7856 17.8047 13.8097 19.6731 16.3065 19.6731Z" stroke="#BBBD41"/>
</g>
<defs>
<clipPath id="clip0_1432_73">
<rect width="31" height="31" fill="white" transform="translate(0.806396)"/>
</clipPath>
</defs>
</svg>
