<svg width="35" height="35" viewBox="0 0 640 384" fill="none" xmlns="http://www.w3.org/2000/svg">
<path d="M640 66.94V32C640 14.33 625.67 0 608 0H32C14.33 0 0 14.33 0 32V66.94C18.6 73.55 32 91.13 32 112C32 132.87 18.6 150.45 0 157.06V256H640V157.06C621.4 150.45 608 132.87 608 112C608 91.13 621.4 73.55 640 66.94ZM224 192H160V64H224V192ZM352 192H288V64H352V192ZM480 192H416V64H480V192ZM0 384H64V357.33C64 348.49 71.16 341.33 80 341.33C88.84 341.33 96 348.49 96 357.33V384H224V357.33C224 348.49 231.16 341.33 240 341.33C248.84 341.33 256 348.49 256 357.33V384H384V357.33C384 348.49 391.16 341.33 400 341.33C408.84 341.33 416 348.49 416 357.33V384H544V357.33C544 348.49 551.16 341.33 560 341.33C568.84 341.33 576 348.49 576 357.33V384H640V288H0V384Z" fill="#5D6065"/>
</svg>
