<svg width="35" height="35" viewBox="0 0 35 35" fill="none" xmlns="http://www.w3.org/2000/svg">
<path d="M35 11.6667H0V17.5H35V11.6667ZM2.91667 16.0417L4.17521 13.125H6.03458L4.77604 16.0417H2.91667ZM5.92958 16.0417L7.18958 13.125H9.04896L7.79042 16.0417H5.92958V16.0417ZM8.94396 16.0417L10.2025 13.125H12.0619L10.8019 16.0417H8.94396V16.0417ZM11.9569 16.0417L13.2154 13.125H15.0733L13.8148 16.0417H11.9569V16.0417ZM16.8292 16.0417H14.9713L16.2298 13.125H18.0892L16.8292 16.0417V16.0417ZM30.625 16.0417C29.82 16.0417 29.1667 15.3883 29.1667 14.5833C29.1667 13.7783 29.82 13.125 30.625 13.125C31.4315 13.125 32.0833 13.7783 32.0833 14.5833C32.0833 15.3883 31.4315 16.0417 30.625 16.0417ZM35 20.4167H0V26.25H35V20.4167ZM2.91667 24.7917L4.17521 21.875H6.03458L4.77604 24.7917H2.91667ZM5.92958 24.7917L7.18813 21.875H9.0475L7.78896 24.7917H5.92958V24.7917ZM8.94396 24.7917L10.2025 21.875H12.0619L10.8019 24.7917H8.94396V24.7917ZM11.9569 24.7917L13.2154 21.875H15.0733L13.8148 24.7917H11.9569V24.7917ZM16.8292 24.7917H14.9713L16.2298 21.875H18.0892L16.8292 24.7917V24.7917ZM30.625 24.7917C29.82 24.7917 29.1667 24.1383 29.1667 23.3333C29.1667 22.5283 29.82 21.875 30.625 21.875C31.4315 21.875 32.0833 22.5283 32.0833 23.3333C32.0833 24.1383 31.4315 24.7917 30.625 24.7917ZM35 29.1667H0V35H35V29.1667ZM2.91667 33.5417L4.17521 30.625H6.03458L4.77604 33.5417H2.91667ZM5.92958 33.5417L7.18813 30.625H9.0475L7.78896 33.5417H5.92958V33.5417ZM8.94396 33.5417L10.2025 30.625H12.0619L10.8019 33.5417H8.94396V33.5417ZM11.9569 33.5417L13.2154 30.625H15.0733L13.8148 33.5417H11.9569V33.5417ZM16.8292 33.5417H14.9713L16.2298 30.625H18.0892L16.8292 33.5417V33.5417ZM30.625 33.5417C29.82 33.5417 29.1667 32.8883 29.1667 32.0833C29.1667 31.2783 29.82 30.625 30.625 30.625C31.4315 30.625 32.0833 31.2783 32.0833 32.0833C32.0833 32.8883 31.4315 33.5417 30.625 33.5417ZM32.0833 8.75H2.91667L8.75 0H26.25L32.0833 8.75Z" fill="#5D6065"/>
</svg>
