<svg width="35" height="35" viewBox="0 0 35 35" fill="none" xmlns="http://www.w3.org/2000/svg">
<path d="M32.0833 11.6667V17.5H2.91667V11.6667H32.0833ZM35 8.75H0V20.4167H35V8.75ZM4.375 16.0417L5.63354 13.125H7.49292L6.23438 16.0417H4.375V16.0417ZM7.38792 16.0417L8.64792 13.125H10.5073L9.24875 16.0417H7.38792V16.0417ZM10.4023 16.0417L11.6608 13.125H13.5202L12.2602 16.0417H10.4023ZM13.4152 16.0417L14.6738 13.125H16.5317L15.2731 16.0417H13.4152V16.0417ZM18.2875 16.0417H16.4296L17.6881 13.125H19.5475L18.2875 16.0417V16.0417ZM29.1667 16.0417C28.3617 16.0417 27.7083 15.3883 27.7083 14.5833C27.7083 13.7783 28.3617 13.125 29.1667 13.125C29.9731 13.125 30.625 13.7783 30.625 14.5833C30.625 15.3883 29.9731 16.0417 29.1667 16.0417ZM32.0833 26.25V32.0833H2.91667V26.25H32.0833ZM35 23.3333H0V35H35V23.3333ZM4.375 30.625L5.63354 27.7083H7.49292L6.23438 30.625H4.375V30.625ZM7.38792 30.625L8.64646 27.7083H10.5058L9.24729 30.625H7.38792V30.625ZM10.4023 30.625L11.6608 27.7083H13.5202L12.2602 30.625H10.4023ZM13.4152 30.625L14.6738 27.7083H16.5317L15.2731 30.625H13.4152V30.625ZM18.2875 30.625H16.4296L17.6881 27.7083H19.5475L18.2875 30.625V30.625ZM29.1667 30.625C28.3617 30.625 27.7083 29.9717 27.7083 29.1667C27.7083 28.3617 28.3617 27.7083 29.1667 27.7083C29.9731 27.7083 30.625 28.3617 30.625 29.1667C30.625 29.9717 29.9731 30.625 29.1667 30.625ZM6.42104 7.29167H2.91667L8.75 0H26.25L32.0833 7.29167H28.579L24.6896 2.91667H10.3104L6.42104 7.29167Z" fill="#5D6065"/>
</svg>
